<svg width="20" height="23" fill="none" xmlns="http://www.w3.org/2000/svg"><path fill-rule="evenodd" clip-rule="evenodd" d="M7.647 5.172a.52.52 0 01-.513-.517.52.52 0 011.04 0c0 .278-.23.517-.527.517zm5.697 0a.523.523 0 01-.527-.517.52.52 0 011.04 0 .52.52 0 01-.513.517zM2.38 7.612c-.77 0-1.39.611-1.39 1.354v5.704c0 .756.62 1.366 1.39 1.366.77 0 1.377-.61 1.377-1.366V8.966c0-.743-.62-1.353-1.377-1.353zm14.311.253H4.298V16.7c0 .809.662 1.459 1.485 1.459h1l.013 3.01c0 .757.621 1.367 1.377 1.367.77 0 1.39-.61 1.39-1.366v-3.011h1.864v3.01c0 .757.62 1.367 1.39 1.367.77 0 1.391-.61 1.391-1.366v-3.011h1.012c.81 0 1.472-.65 1.472-1.46V7.866zM13.56 2.493l.958-1.738a.191.191 0 00-.067-.265c-.095-.04-.216-.014-.27.08l-.972 1.75a6.787 6.787 0 00-2.714-.557c-.972 0-1.89.199-2.713.557L6.81.57C6.756.475 6.634.45 6.54.49a.191.191 0 00-.068.265l.959 1.738c-1.904.955-3.187 2.785-3.187 4.894h12.489c0-2.109-1.283-3.94-3.173-4.894zM20 8.966c0-.756-.621-1.353-1.39-1.353-.757 0-1.378.597-1.378 1.353v5.704c0 .756.621 1.366 1.377 1.366.77 0 1.39-.61 1.39-1.366V8.966z" fill="#fff"/></svg>